<svg width="1200" height="600" xmlns="http://www.w3.org/2000/svg">
    <defs>
        <clipPath id="a">
            <path fill="#000000" stroke="none" d="M 0 0 L 0 150 L 700 150 L 700 300 L 600 300 Z M 600 0 L 300 0 L 300 350 L 0 350 L 0 300 Z"/>
        </clipPath>
    </defs>
    <path fill="#012169" stroke="none" d="M 0 0 L 1200 0 L 1200 600 L 0 600 Z"/>
    <path fill="#000000" stroke="#ffffff" stroke-width="60" d="M 0 0 L 600 300 M 600 0 L 0 300"/>
    <g clip-path="url(#a)">
        <path fill="#000000" stroke="#c8102e" stroke-width="40" d="M 0 0 L 600 300 M 600 0 L 0 300"/>
    </g>
    <path fill="#000000" stroke="#ffffff" stroke-width="100" d="M 300 0 L 300 350 M 0 150 L 700 150"/>
    <path fill="#000000" stroke="#c8102e" stroke-width="60" d="M 300 0 L 300 350 M 0 150 L 700 150"/>
    <path fill="#012169" stroke="none" d="M 0 300 L 600 300 L 600 0 L 800 0 L 800 400 L 0 400 Z"/>
    <path fill="#ffffff" stroke="none" d="M 784.8 156 C 784.8 307.011 802.31 359.04498 837.36505 394.1 C 858.27 414.853 867.539 422.662 900 444 C 932.46106 422.663 941.72894 414.85403 962.63605 394.1 C 997.689 359.04498 1015.2 307.011 1015.2 156 C 989.70294 166.917 975.174 172.20901 954.1489 171.885 C 935.34 171.595 915.412 162.861 900 156 C 884.5881 162.86 864.66 171.595 845.852 171.885 C 824.82605 172.20901 810.297 166.917 784.8 156"/>
    <g transform="matrix(3.50845 0 0 3.34488 -47.153 -59.398)">
        <path fill="#ff9900" stroke="none" d="M 271 87 C 272.543 90.63 277.49 94.637 278.85 96.601 C 277.119 98.56501 276.773 98.351 277 102 C 280.01 98.85 280.064 98.522 282 99 C 286.241 103.232 282.759 112.32101 279.254 114.297 C 275.75 116.405 276.386 114.22399 271.134 116.866 C 273.542 118.925 276.332 116.563995 278.612 117.195 C 279.851 118.665 278.023 121.344 278.986 123.86699 C 281.001 123.673 280.759 119.605 281.228 118.130005 C 282.7 112.726 291.55 108.957 292 104 C 293.866 103.124 295.731 103.726 298 105 C 296.87 100.356 293.132 100.406 292.13 98.956 C 289.745 95.311005 287.631 91.153 282.537 90.07499 C 278.67 89.255 278.959 90.321 276.481 88.631 C 274.938 87.429 270.25 85.157 271 87"/>
        <path fill="#ffffff" stroke="none" d="M 282.123 91.128006 C 282.123 91.57314 281.76212 91.934006 281.317 91.934006 C 280.87186 91.934006 280.511 91.57314 280.511 91.128006 C 280.511 90.682846 280.87186 90.322 281.317 90.322 C 281.76212 90.322 282.123 90.682846 282.123 91.128006 Z"/>
    </g>
    <g transform="matrix(-1.639 -2.95744 3.10207 -1.56258 1034.545 1220.517)">
        <path fill="#ff9900" stroke="none" d="M 271 87 C 272.543 90.63 277.49 94.637 278.85 96.601 C 277.119 98.56501 276.773 98.351 277 102 C 280.01 98.85 280.064 98.522 282 99 C 286.241 103.232 282.759 112.32101 279.254 114.297 C 275.75 116.405 276.386 114.22399 271.134 116.866 C 273.542 118.925 276.332 116.563995 278.612 117.195 C 279.851 118.665 278.023 121.344 278.986 123.86699 C 281.001 123.673 280.759 119.605 281.228 118.130005 C 282.7 112.726 291.55 108.957 292 104 C 293.866 103.124 295.731 103.726 298 105 C 296.87 100.356 293.132 100.406 292.13 98.956 C 289.745 95.311005 287.631 91.153 282.537 90.07499 C 278.67 89.255 278.959 90.321 276.481 88.631 C 274.938 87.429 270.25 85.157 271 87"/>
        <path fill="#ffffff" stroke="none" d="M 282.123 91.128006 C 282.123 91.57314 281.76212 91.934006 281.317 91.934006 C 280.87186 91.934006 280.511 91.57314 280.511 91.128006 C 280.511 90.682846 280.87186 90.322 281.317 90.322 C 281.76212 90.322 282.123 90.682846 282.123 91.128006 Z"/>
    </g>
    <g transform="matrix(-1.80698 2.86712 -3.00733 -1.72273 1682.51 -336.808)">
        <path fill="#ff9900" stroke="none" d="M 271 87 C 272.543 90.63 277.49 94.637 278.85 96.601 C 277.119 98.56501 276.773 98.351 277 102 C 280.01 98.85 280.064 98.522 282 99 C 286.241 103.232 282.759 112.32101 279.254 114.297 C 275.75 116.405 276.386 114.22399 271.134 116.866 C 273.542 118.925 276.332 116.563995 278.612 117.195 C 279.851 118.665 278.023 121.344 278.986 123.86699 C 281.001 123.673 280.759 119.605 281.228 118.130005 C 282.7 112.726 291.55 108.957 292 104 C 293.866 103.124 295.731 103.726 298 105 C 296.87 100.356 293.132 100.406 292.13 98.956 C 289.745 95.311005 287.631 91.153 282.537 90.07499 C 278.67 89.255 278.959 90.321 276.481 88.631 C 274.938 87.429 270.25 85.157 271 87"/>
        <path fill="#ffffff" stroke="none" d="M 282.123 91.128006 C 282.123 91.57314 281.76212 91.934006 281.317 91.934006 C 280.87186 91.934006 280.511 91.57314 280.511 91.128006 C 280.511 90.682846 280.87186 90.322 281.317 90.322 C 281.76212 90.322 282.123 90.682846 282.123 91.128006 Z"/>
    </g>
    <path fill="#99ccff" stroke="none" d="M 813.698 362.055 C 820.4181 374.81 828.3 385.034 837.366 394.09903 C 858.272 414.85403 867.539 422.663 900 444 C 932.46106 422.663 941.73 414.85403 962.637 394.1 C 971.702 385.034 979.582 374.81 986.302 362.055 Z"/>
</svg>
