<svg width="1200" height="600" xmlns="http://www.w3.org/2000/svg">
    <g transform="matrix(0.08928572 0 0 0.08928572 0 0)">
        <path fill="#ffffff" stroke="none" d="M 0 0 L 13440 0 L 13440 6720 L 0 6720 Z"/>
        <path fill="none" stroke="#cc0000" stroke-width="480" d="M 480 240 L 13440 240 M 13440 1200 L 480 1200 M 480 2160 L 13440 2160 M 13440 3120 L 480 3120"/>
        <path fill="#000066" stroke="none" d="M 0 0 L 6720 0 L 6720 4080 L 0 4080 Z"/>
        <path fill="none" stroke="#cc0000" stroke-width="480" d="M 0 4080 L 13440 4080 M 13440 5040 L 0 5040 M 0 6000 L 13440 6000"/>
        <path fill="#ffcc00" stroke="none" d="M 4200 720 L 4307 1452 L 4721 839 L 4499 1545 L 5138 1172 L 4632 1712 L 5370 1653 L 4680 1920 L 5370 2187 L 4632 2128 L 5138 2668 L 4499 2295 L 4721 3001 L 4307 2388 L 4200 3120 L 4093 2388 L 3679 3001 L 3901 2295 L 3262 2668 L 3768 2128 L 3030 2187 L 3720 1920 L 3030 1653 L 3768 1712 L 3262 1172 L 3901 1545 L 3679 839 L 4093 1452 Z M 3600 750 C 3204.0747 574.3263 2746.164 610.80457 2383.045 846.9457 C 2019.9259 1083.0867 1800.8661 1486.851 1800.8661 1920 C 1800.8661 2353.149 2019.9259 2756.9133 2383.045 2993.0544 C 2746.164 3229.1953 3204.0747 3265.674 3600 3090 C 3161.2869 3404.7727 2583.3472 3447.6636 2102.9753 3201.099 C 1622.6036 2954.5342 1320.5359 2459.9548 1320.5359 1920 C 1320.5359 1380.0453 1622.6036 885.46564 2102.9753 638.9012 C 2583.3472 392.33667 3161.2869 435.22736 3600 750 Z"/>
    </g>
</svg>
